<svg data-v-5f19e91b="" xmlns="http://www.w3.org/2000/svg" width="341" height="35" viewBox="0 0 341 35"><!----> <!----> <!----> <g data-v-5f19e91b="" id="5eb95f3b-2171-0511-7697-152597ac6152" fill="black" transform="matrix(4.169562372821328,0,0,4.169562372821328,65.88216566799224,-17.90228179164427)"><path d="M4.55 1.26L4.55 1.26Q5.57 1.26 6.43 1.75L6.43 1.75L6.43 1.75Q7.28 2.24 7.69 2.93L7.69 2.93L7.69 2.93Q7.74 3.02 7.74 3.15L7.74 3.15L7.74 3.15Q7.74 3.26 7.68 3.35L7.68 3.35L7.68 3.35Q7.62 3.44 7.50 3.50L7.50 3.50L7.50 3.50Q7.45 3.53 7.34 3.53L7.34 3.53L7.34 3.53Q7.08 3.53 6.94 3.32L6.94 3.32L6.94 3.32Q6.12 2.10 4.55 2.10L4.55 2.10L4.55 2.10Q3.39 2.10 2.74 2.63L2.74 2.63L2.74 2.63Q2.09 3.15 2.09 4.09L2.09 4.09L2.09 4.09Q2.09 4.87 2.73 5.40L2.73 5.40L2.73 5.40Q3.37 5.94 4.72 6.16L4.72 6.16L4.72 6.16Q6.48 6.45 7.29 7.24L7.29 7.24L7.29 7.24Q8.11 8.04 8.11 9.32L8.11 9.32L8.11 9.32Q8.11 10.29 7.68 11.00L7.68 11.00L7.68 11.00Q7.25 11.72 6.48 12.10L6.48 12.10L6.48 12.10Q5.70 12.47 4.68 12.47L4.68 12.47L4.68 12.47Q3.36 12.47 2.39 11.93L2.39 11.93L2.39 11.93Q1.43 11.40 0.95 10.46L0.95 10.46L0.95 10.46Q0.91 10.37 0.91 10.29L0.91 10.29L0.91 10.29Q0.91 10.12 1.03 10.01L1.03 10.01L1.03 10.01Q1.15 9.90 1.34 9.90L1.34 9.90L1.34 9.90Q1.62 9.90 1.75 10.16L1.75 10.16L1.75 10.16Q2.13 10.86 2.88 11.25L2.88 11.25L2.88 11.25Q3.63 11.63 4.68 11.63L4.68 11.63L4.68 11.63Q5.88 11.63 6.57 11.03L6.57 11.03L6.57 11.03Q7.27 10.43 7.27 9.32L7.27 9.32L7.27 9.32Q7.27 8.37 6.59 7.75L6.59 7.75L6.59 7.75Q5.91 7.13 4.58 6.94L4.58 6.94L4.58 6.94Q3.02 6.72 2.14 5.93L2.14 5.93L2.14 5.93Q1.25 5.14 1.25 4.00L1.25 4.00L1.25 4.00Q1.25 3.19 1.66 2.57L1.66 2.57L1.66 2.57Q2.07 1.95 2.82 1.60L2.82 1.60L2.82 1.60Q3.57 1.26 4.55 1.26L4.55 1.26ZM13.73 11.48L13.73 11.48Q13.93 11.48 14.05 11.60L14.05 11.60L14.05 11.60Q14.17 11.72 14.17 11.91L14.17 11.91L14.17 11.91Q14.17 12.10 14.05 12.21L14.05 12.21L14.05 12.21Q13.93 12.33 13.73 12.33L13.73 12.33L13.41 12.33L13.41 12.33Q12.64 12.33 12.04 11.98L12.04 11.98L12.04 11.98Q11.44 11.63 11.10 11.03L11.10 11.03L11.10 11.03Q10.77 10.42 10.77 9.65L10.77 9.65L10.77 5.71L9.67 5.71L9.67 5.71Q9.51 5.71 9.40 5.61L9.40 5.61L9.40 5.61Q9.30 5.50 9.30 5.33L9.30 5.33L9.30 5.33Q9.30 5.17 9.40 5.06L9.40 5.06L9.40 5.06Q9.51 4.96 9.67 4.96L9.67 4.96L10.77 4.96L10.77 2.67L10.77 2.67Q10.77 2.48 10.88 2.36L10.88 2.36L10.88 2.36Q11.00 2.24 11.19 2.24L11.19 2.24L11.19 2.24Q11.38 2.24 11.50 2.36L11.50 2.36L11.50 2.36Q11.62 2.48 11.62 2.67L11.62 2.67L11.62 4.96L13.47 4.96L13.47 4.96Q13.64 4.96 13.74 5.06L13.74 5.06L13.74 5.06Q13.85 5.17 13.85 5.33L13.85 5.33L13.85 5.33Q13.85 5.50 13.74 5.61L13.74 5.61L13.74 5.61Q13.64 5.71 13.47 5.71L13.47 5.71L11.62 5.71L11.62 9.65L11.62 9.65Q11.62 10.46 12.12 10.97L12.12 10.97L12.12 10.97Q12.63 11.48 13.43 11.48L13.43 11.48L13.73 11.48ZM19.17 4.59L19.17 4.59Q20.23 4.59 20.23 5.05L20.23 5.05L20.23 5.05Q20.23 5.12 20.22 5.17L20.22 5.17L20.22 5.17Q20.17 5.32 20.08 5.38L20.08 5.38L20.08 5.38Q19.99 5.45 19.84 5.45L19.84 5.45L19.84 5.45Q19.71 5.45 19.51 5.42L19.51 5.42L19.51 5.42Q19.31 5.39 19.17 5.39L19.17 5.39L19.17 5.39Q18.47 5.39 17.92 5.68L17.92 5.68L17.92 5.68Q17.37 5.98 17.07 6.50L17.07 6.50L17.07 6.50Q16.76 7.01 16.76 7.66L16.76 7.66L16.76 11.91L16.76 11.91Q16.76 12.10 16.65 12.21L16.65 12.21L16.65 12.21Q16.53 12.33 16.34 12.33L16.34 12.33L16.34 12.33Q16.16 12.33 16.04 12.21L16.04 12.21L16.04 12.21Q15.92 12.10 15.92 11.91L15.92 11.91L15.92 5.10L15.92 5.10Q15.92 4.90 16.04 4.79L16.04 4.79L16.04 4.79Q16.16 4.68 16.34 4.68L16.34 4.68L16.34 4.68Q16.53 4.68 16.65 4.79L16.65 4.79L16.65 4.79Q16.76 4.90 16.76 5.10L16.76 5.10L16.76 5.96L16.76 5.96Q17.16 5.32 17.79 4.96L17.79 4.96L17.79 4.96Q18.42 4.59 19.17 4.59L19.17 4.59ZM25.55 4.59L25.55 4.59Q26.64 4.59 27.54 5.10L27.54 5.10L27.54 5.10Q28.43 5.61 28.95 6.51L28.95 6.51L28.95 6.51Q29.46 7.41 29.46 8.51L29.46 8.51L29.46 8.51Q29.46 9.60 28.95 10.50L28.95 10.50L28.95 10.50Q28.43 11.40 27.54 11.91L27.54 11.91L27.54 11.91Q26.64 12.42 25.55 12.42L25.55 12.42L25.55 12.42Q24.44 12.42 23.55 11.91L23.55 11.91L23.55 11.91Q22.65 11.40 22.14 10.50L22.14 10.50L22.14 10.50Q21.63 9.60 21.63 8.51L21.63 8.51L21.63 8.51Q21.63 7.41 22.14 6.51L22.14 6.51L22.14 6.51Q22.65 5.61 23.55 5.10L23.55 5.10L23.55 5.10Q24.44 4.59 25.55 4.59L25.55 4.59ZM25.55 5.38L25.55 5.38Q24.68 5.38 23.98 5.79L23.98 5.79L23.98 5.79Q23.28 6.20 22.88 6.92L22.88 6.92L22.88 6.92Q22.47 7.63 22.47 8.51L22.47 8.51L22.47 8.51Q22.47 9.39 22.88 10.11L22.88 10.11L22.88 10.11Q23.28 10.82 23.98 11.23L23.98 11.23L23.98 11.23Q24.68 11.63 25.55 11.63L25.55 11.63L25.55 11.63Q26.42 11.63 27.12 11.23L27.12 11.23L27.12 11.23Q27.82 10.82 28.22 10.11L28.22 10.11L28.22 10.11Q28.62 9.39 28.62 8.51L28.62 8.51L28.62 8.51Q28.62 7.63 28.22 6.92L28.22 6.92L28.22 6.92Q27.82 6.20 27.12 5.79L27.12 5.79L27.12 5.79Q26.42 5.38 25.55 5.38L25.55 5.38ZM35.06 4.58L35.06 4.58Q36.08 4.58 36.88 5.00L36.88 5.00L36.88 5.00Q37.69 5.42 38.14 6.22L38.14 6.22L38.14 6.22Q38.60 7.03 38.60 8.15L38.60 8.15L38.60 11.91L38.60 11.91Q38.60 12.10 38.48 12.21L38.48 12.21L38.48 12.21Q38.36 12.33 38.18 12.33L38.18 12.33L38.18 12.33Q38.00 12.33 37.88 12.21L37.88 12.21L37.88 12.21Q37.76 12.10 37.76 11.91L37.76 11.91L37.76 8.15L37.76 8.15Q37.76 6.82 37.01 6.12L37.01 6.12L37.01 6.12Q36.26 5.42 35.06 5.42L35.06 5.42L35.06 5.42Q34.31 5.42 33.71 5.70L33.71 5.70L33.71 5.70Q33.10 5.99 32.75 6.50L32.75 6.50L32.75 6.50Q32.40 7.01 32.40 7.63L32.40 7.63L32.40 11.91L32.40 11.91Q32.40 12.10 32.28 12.21L32.28 12.21L32.28 12.21Q32.17 12.33 31.98 12.33L31.98 12.33L31.98 12.33Q31.79 12.33 31.68 12.21L31.68 12.21L31.68 12.21Q31.56 12.10 31.56 11.91L31.56 11.91L31.56 5.10L31.56 5.10Q31.56 4.90 31.68 4.79L31.68 4.79L31.68 4.79Q31.79 4.68 31.98 4.68L31.98 4.68L31.98 4.68Q32.17 4.68 32.28 4.79L32.28 4.79L32.28 4.79Q32.40 4.90 32.40 5.10L32.40 5.10L32.40 5.82L32.40 5.82Q32.87 5.24 33.56 4.91L33.56 4.91L33.56 4.91Q34.24 4.58 35.06 4.58L35.06 4.58ZM44.48 4.59L44.48 4.59Q45.61 4.59 46.50 5.10L46.50 5.10L46.50 5.10Q47.39 5.60 47.89 6.49L47.89 6.49L47.89 6.49Q48.38 7.38 48.38 8.51L48.38 8.51L48.38 11.26L48.38 11.26Q48.38 12.38 47.88 13.29L47.88 13.29L47.88 13.29Q47.38 14.21 46.49 14.73L46.49 14.73L46.49 14.73Q45.61 15.26 44.53 15.26L44.53 15.26L44.53 15.26Q43.43 15.26 42.60 14.85L42.60 14.85L42.60 14.85Q41.76 14.43 41.20 13.72L41.20 13.72L41.20 13.72Q41.09 13.58 41.09 13.44L41.09 13.44L41.09 13.44Q41.09 13.27 41.23 13.17L41.23 13.17L41.23 13.17Q41.34 13.09 41.48 13.09L41.48 13.09L41.48 13.09Q41.71 13.09 41.85 13.27L41.85 13.27L41.85 13.27Q42.31 13.83 42.99 14.15L42.99 14.15L42.99 14.15Q43.67 14.48 44.53 14.48L44.53 14.48L44.53 14.48Q45.39 14.48 46.07 14.06L46.07 14.06L46.07 14.06Q46.76 13.64 47.15 12.90L47.15 12.90L47.15 12.90Q47.54 12.17 47.54 11.26L47.54 11.26L47.54 10.64L47.54 10.64Q47.14 11.47 46.33 11.94L46.33 11.94L46.33 11.94Q45.53 12.42 44.48 12.42L44.48 12.42L44.48 12.42Q43.34 12.42 42.46 11.92L42.46 11.92L42.46 11.92Q41.57 11.42 41.06 10.54L41.06 10.54L41.06 10.54Q40.56 9.65 40.56 8.51L40.56 8.51L40.56 8.51Q40.56 7.39 41.08 6.50L41.08 6.50L41.08 6.50Q41.59 5.60 42.49 5.10L42.49 5.10L42.49 5.10Q43.39 4.59 44.48 4.59L44.48 4.59ZM44.48 11.63L44.48 11.63Q45.36 11.63 46.06 11.23L46.06 11.23L46.06 11.23Q46.76 10.84 47.15 10.13L47.15 10.13L47.15 10.13Q47.54 9.42 47.54 8.51L47.54 8.51L47.54 8.51Q47.54 7.60 47.15 6.89L47.15 6.89L47.15 6.89Q46.76 6.17 46.06 5.77L46.06 5.77L46.06 5.77Q45.36 5.38 44.48 5.38L44.48 5.38L44.48 5.38Q43.58 5.38 42.88 5.77L42.88 5.77L42.88 5.77Q42.18 6.17 41.79 6.89L41.79 6.89L41.79 6.89Q41.40 7.60 41.40 8.51L41.40 8.51L41.40 8.51Q41.40 9.42 41.79 10.13L41.79 10.13L41.79 10.13Q42.18 10.84 42.88 11.23L42.88 11.23L42.88 11.23Q43.58 11.63 44.48 11.63L44.48 11.63ZM50.76 5.10L50.76 5.10Q50.76 4.90 50.88 4.79L50.88 4.79L50.88 4.79Q51.00 4.68 51.18 4.68L51.18 4.68L51.18 4.68Q51.38 4.68 51.49 4.79L51.49 4.79L51.49 4.79Q51.60 4.90 51.60 5.10L51.60 5.10L51.60 11.91L51.60 11.91Q51.60 12.10 51.49 12.21L51.49 12.21L51.49 12.21Q51.38 12.33 51.18 12.33L51.18 12.33L51.18 12.33Q51.00 12.33 50.88 12.21L50.88 12.21L50.88 12.21Q50.76 12.10 50.76 11.91L50.76 11.91L50.76 5.10ZM51.18 1.76L51.18 1.76Q51.45 1.76 51.64 1.93L51.64 1.93L51.64 1.93Q51.83 2.10 51.83 2.41L51.83 2.41L51.83 2.41Q51.83 2.69 51.64 2.88L51.64 2.88L51.64 2.88Q51.45 3.07 51.17 3.07L51.17 3.07L51.17 3.07Q50.89 3.07 50.71 2.88L50.71 2.88L50.71 2.88Q50.53 2.69 50.53 2.41L50.53 2.41L50.53 2.41Q50.53 2.10 50.72 1.93L50.72 1.93L50.72 1.93Q50.92 1.76 51.18 1.76L51.18 1.76ZM57.83 2.16L57.83 2.16Q56.81 2.16 56.35 2.83L56.35 2.83L56.35 2.83Q55.89 3.51 55.89 4.66L55.89 4.66L55.89 4.96L57.74 4.96L57.74 4.96Q57.90 4.96 58.01 5.06L58.01 5.06L58.01 5.06Q58.11 5.17 58.11 5.33L58.11 5.33L58.11 5.33Q58.11 5.50 58.01 5.61L58.01 5.61L58.01 5.61Q57.90 5.71 57.74 5.71L57.74 5.71L55.89 5.71L55.89 11.91L55.89 11.91Q55.89 12.10 55.77 12.21L55.77 12.21L55.77 12.21Q55.65 12.33 55.45 12.33L55.45 12.33L55.45 12.33Q55.27 12.33 55.15 12.21L55.15 12.21L55.15 12.21Q55.03 12.10 55.03 11.91L55.03 11.91L55.03 5.71L53.94 5.71L53.94 5.71Q53.77 5.71 53.67 5.61L53.67 5.61L53.67 5.61Q53.56 5.50 53.56 5.33L53.56 5.33L53.56 5.33Q53.56 5.17 53.67 5.06L53.67 5.06L53.67 5.06Q53.77 4.96 53.94 4.96L53.94 4.96L55.03 4.96L55.03 4.66L55.03 4.66Q55.03 3.16 55.73 2.28L55.73 2.28L55.73 2.28Q56.43 1.40 57.83 1.40L57.83 1.40L57.83 1.40Q58.02 1.40 58.14 1.50L58.14 1.50L58.14 1.50Q58.25 1.61 58.25 1.78L58.25 1.78L58.25 1.78Q58.25 1.95 58.14 2.05L58.14 2.05L58.14 2.05Q58.02 2.16 57.83 2.16L57.83 2.16ZM65.60 4.69L65.60 4.69Q65.87 4.80 65.87 5.01L65.87 5.01L65.87 5.01Q65.87 5.07 65.81 5.21L65.81 5.21L61.11 15.40L61.11 15.40Q60.98 15.65 60.79 15.65L60.79 15.65L60.79 15.65Q60.70 15.65 60.59 15.61L60.59 15.61L60.59 15.61Q60.33 15.50 60.33 15.29L60.33 15.29L60.33 15.29Q60.33 15.23 60.38 15.09L60.38 15.09L61.78 12.07L61.78 12.07Q61.77 12.05 61.73 11.97L61.73 11.97L58.66 5.25L58.66 5.25Q58.60 5.14 58.60 5.03L58.60 5.03L58.60 5.03Q58.60 4.82 58.84 4.70L58.84 4.70L58.84 4.70Q58.95 4.65 59.07 4.65L59.07 4.65L59.07 4.65Q59.28 4.65 59.39 4.89L59.39 4.89L62.23 11.10L65.09 4.90L65.09 4.90Q65.21 4.65 65.41 4.65L65.41 4.65L65.41 4.65Q65.51 4.65 65.60 4.69L65.60 4.69Z"></path></g> <!----> <g data-v-5f19e91b="" id="9978fc41-1ce8-4e7f-d527-5a301514eca0" transform="matrix(0.6209556579589843,0,0,0.6209556579589843,-6.047787635464918,-12.990785337194392)" stroke="none" fill="black"><path d="M76.91 29.446H23.09a.938.938 0 0 0-.937.938v29.85c0 .517.42.938.937.938h53.82c.518 0 .937-.42.937-.938v-29.85a.938.938 0 0 0-.937-.938zm-.937 29.85H24.027V31.322h51.946v27.974z"></path><path d="M86.98 66.684h-3.53a3 3 0 0 0 .228-1.145v-40.46a3.025 3.025 0 0 0-3.021-3.022H19.343a3.025 3.025 0 0 0-3.02 3.021v40.46a3 3 0 0 0 .228 1.146h-3.53A3.025 3.025 0 0 0 10 69.705v4.175a4.067 4.067 0 0 0 4.062 4.063h71.876A4.067 4.067 0 0 0 90 73.88v-4.175a3.025 3.025 0 0 0-3.02-3.021zm-68.783-1.145v-40.46c0-.632.514-1.146 1.146-1.146h61.314c.632 0 1.146.514 1.146 1.145v40.46c0 .632-.514 1.146-1.146 1.146H19.343a1.147 1.147 0 0 1-1.146-1.145zm38.522 3.02L55.2 70.335H44.8l-1.52-1.774h13.44zm31.406 5.321a2.19 2.19 0 0 1-2.187 2.187H14.062a2.19 2.19 0 0 1-2.187-2.187v-4.175c0-.632.514-1.145 1.146-1.145H40.813l2.843 3.321a.937.937 0 0 0 .712.329h11.264c.273 0 .534-.12.712-.329l2.843-3.321H86.98c.632 0 1.146.513 1.146 1.145v4.175z"></path><path d="M18.164 71.375H15.95a.938.938 0 0 0 0 1.876h2.214a.938.938 0 0 0 0-1.876zM24.935 71.375H22.72a.938.938 0 0 0 0 1.876h2.214a.938.938 0 0 0 0-1.876zM51.107 62.99h-2.214a.938.938 0 0 0 0 1.876h2.214a.938.938 0 0 0 0-1.876zM49.83 27.628h.34a.938.938 0 0 0 0-1.876h-.34a.938.938 0 0 0 0 1.876zM28.255 52.67h11.133c.518 0 .937-.42.937-.938v-3.925h18.308v3.925c0 .518.42.938.937.938h11.133c.518 0 .938-.42.938-.938V38.885a.938.938 0 0 0-.938-.937H59.571a.938.938 0 0 0-.938.937v3.925H40.325v-3.925a.938.938 0 0 0-.937-.937H28.256a.938.938 0 0 0-.938.937v12.847c0 .518.42.938.937.938zm41.51-1.876H67.93v-10.97h1.836v10.97zm-3.71 0h-1.836v-10.97h1.836v10.97zm-5.547-10.97h1.836v10.97h-1.836V39.823zm-1.875 4.862v1.245H40.325v-1.245h18.308zm-20.182-.938v7.046h-1.837v-10.97h1.837v3.924zm-3.711 7.046h-1.836v-10.97h1.836v10.97zm-5.547-10.97h1.836v10.97h-1.836v-10.97z"></path></g></svg>